<?xml version="1.0" standalone="no"?>
<!DOCTYPE svg PUBLIC "-//W3C//DTD SVG 20010904//EN"
 "http://www.w3.org/TR/2001/REC-SVG-20010904/DTD/svg10.dtd">
<svg version="1.0" xmlns="http://www.w3.org/2000/svg"
 width="260.000000pt" height="260.000000pt" viewBox="0 0 260.000000 260.000000"
 preserveAspectRatio="xMidYMid meet">

<g transform="translate(0.000000,260.000000) scale(0.100000,-0.100000)"
fill="#000000" stroke="none">
<path d="M445 1971 c-69 -18 -138 -68 -186 -135 -33 -45 -37 -76 -11 -99 29
-27 55 -20 97 24 66 69 121 83 208 53 67 -23 131 -83 169 -162 32 -65 33 -69
33 -202 0 -186 -21 -260 -141 -498 -51 -101 -90 -190 -87 -200 3 -14 136 -121
161 -129 14 -5 125 293 178 481 68 235 82 327 66 431 -20 129 -104 278 -201
354 -84 66 -209 102 -286 82z"/>
<path d="M1931 1676 c-12 -12 -47 -72 -79 -132 l-58 -109 -140 3 c-76 2 -164
-1 -194 -7 -67 -11 -70 -9 -99 80 -21 64 -68 150 -89 163 -43 27 -164 -234
-233 -503 -29 -112 -85 -423 -91 -506 l-3 -40 653 -3 c622 -2 652 -1 652 16 0
33 -30 256 -46 337 -51 264 -185 671 -236 712 -12 11 -19 9 -37 -11z m-453
-482 c23 -16 29 -53 11 -71 -8 -8 -16 -6 -30 8 -24 24 -34 24 -59 -1 -19 -19
-19 -19 -35 3 -16 22 -20 59 -8 70 13 13 99 7 121 -9z m425 -23 c0 -18 -8 -40
-16 -48 -13 -14 -16 -13 -26 6 -14 25 -43 27 -65 5 -21 -20 -36 -10 -36 25 0
42 18 52 85 49 l60 -3 -2 -34z"/>
</g>
</svg>
